<svg version="1.1" id="Layer_1" xmlns="http://www.w3.org/2000/svg" xmlns:xlink="http://www.w3.org/1999/xlink" x="0px" y="0px"
	 width="100%" viewBox="0 0 1024 1024" enable-background="new 0 0 1024 1024" xml:space="preserve">
<path fill="#000000" opacity="1.000000" stroke="none" 
	d="
M835.764771,607.797791 
	C816.023987,623.387817 793.899292,633.048279 769.793091,638.236145 
	C764.821655,639.306030 763.353699,641.416016 763.164551,646.528137 
	C761.846375,682.149780 752.907837,715.942993 736.904358,747.727600 
	C701.853149,817.342896 646.234924,862.358154 570.739990,880.541626 
	C498.112213,898.034607 429.902740,884.746216 368.743408,841.508362 
	C313.340698,802.340332 279.636688,748.519592 266.613495,681.846130 
	C262.956726,663.124817 262.138580,644.214417 262.586456,625.204468 
	C262.777161,617.111816 262.764374,616.972473 254.975739,615.066528 
	C220.029678,606.515137 193.732864,586.550720 176.294495,555.145142 
	C167.493088,539.294312 162.998749,522.078430 162.914474,503.953888 
	C162.685898,454.788391 162.743225,405.621582 162.677505,356.455292 
	C162.667648,349.080566 162.558960,349.032745 155.115555,348.879761 
	C150.279434,348.780396 145.439728,348.579437 140.995102,346.299988 
	C134.366074,342.900299 130.588654,337.748962 130.624649,330.025696 
	C130.702332,313.359619 130.586411,296.692505 130.692276,280.026703 
	C130.760162,269.338440 138.309631,261.755920 148.979019,261.700592 
	C167.145050,261.606354 185.313889,261.555237 203.477356,261.798615 
	C208.248917,261.862549 209.781708,260.430786 209.757431,255.578094 
	C209.580688,220.245789 209.644852,184.912170 209.675522,149.579010 
	C209.689484,133.484192 223.079697,123.901268 238.320023,129.005112 
	C246.672073,131.802139 251.320282,138.549088 251.329575,148.193542 
	C251.363159,183.026703 251.342880,217.859909 251.349518,252.693100 
	C251.351517,263.187317 251.107559,261.633728 260.163910,261.649414 
	C295.997009,261.711426 331.830261,261.676758 367.663452,261.665070 
	C375.476471,261.662506 376.452026,260.986603 376.495514,253.183563 
	C376.624634,230.027161 376.483612,206.869354 376.486115,183.712097 
	C376.487457,171.383408 376.433899,159.052383 376.651245,146.726746 
	C376.843170,135.842484 386.090393,127.640991 397.653381,127.747986 
	C409.503174,127.857628 418.255402,135.847839 418.290161,147.019974 
	C418.397522,181.519501 418.353455,216.019501 418.368591,250.519318 
	C418.369232,252.019287 418.441925,253.522766 418.364410,255.018570 
	C418.123596,259.667328 420.279694,261.645172 424.935272,261.624573 
	C441.767914,261.550171 458.601379,261.619324 475.434357,261.677063 
	C477.756989,261.685028 480.148010,261.624023 482.388855,262.124939 
	C491.761536,264.220154 496.948669,270.545776 497.118073,280.877197 
	C497.374878,296.539520 497.405457,312.212982 497.123047,327.874359 
	C496.891266,340.730652 488.676514,348.340546 475.738617,348.418793 
	C474.738647,348.424835 473.738251,348.399628 472.738708,348.420654 
	C466.036377,348.561493 465.321960,349.264832 465.307251,355.935699 
	C465.289581,363.935608 465.404053,371.937012 465.278900,379.934906 
	C465.219696,383.719147 466.831543,385.112122 470.464569,384.519714 
	C489.458221,381.422607 508.615112,381.114258 527.760986,381.820587 
	C543.413757,382.398010 558.849487,385.063751 574.128174,388.544891 
	C581.440796,390.211060 581.697510,390.271851 584.542236,383.357025 
	C594.647949,358.792572 607.144409,335.477142 620.752441,312.710175 
	C644.168579,273.533813 671.542542,237.285645 701.558472,202.975052 
	C705.946655,197.958969 710.113708,192.739395 714.665833,187.878830 
	C722.803223,179.189987 734.419434,179.210114 742.176758,188.183182 
	C771.845703,222.501999 799.961182,258.000275 824.501953,296.252838 
	C845.425476,328.867065 864.228516,362.547974 878.184021,398.785950 
	C886.038940,419.182526 893.183899,439.910156 895.004883,461.775665 
	C899.864990,520.134460 882.775269,569.926331 835.764771,607.797791 
M416.216034,821.225952 
	C455.347473,841.717773 497.052338,849.283203 540.601074,843.299194 
	C595.492676,835.756531 640.740845,809.600403 675.298279,766.475647 
	C715.034546,716.887939 728.266052,659.627319 718.142212,597.418762 
	C710.331970,549.426453 687.175476,509.028900 650.823853,476.724945 
	C604.626709,435.671783 550.544617,418.149567 488.970734,425.236603 
	C438.488098,431.046967 395.624359,452.570984 361.435913,490.199188 
	C310.197754,546.592529 293.914154,612.798645 311.288147,686.329346 
	C325.476837,746.379211 361.719849,790.813049 416.216034,821.225952 
M835.015442,404.378479 
	C829.188538,390.002533 822.169312,376.197540 814.799194,362.573120 
	C795.086975,326.133331 771.718933,292.114258 746.240051,259.507294 
	C740.529175,252.198792 734.704285,244.979462 728.751404,237.492096 
	C727.450684,238.713623 726.545776,239.424438 725.806091,240.278336 
	C706.150024,262.970245 688.212830,286.967010 671.513611,311.900635 
	C652.936035,339.638763 636.305664,368.418518 623.766296,399.474304 
	C621.727234,404.524353 622.751587,406.624695 627.398254,408.944733 
	C650.544983,420.501587 671.113037,435.760254 689.356873,454.033508 
	C726.457886,491.194305 749.197144,535.971130 759.272888,587.354431 
	C761.252319,597.448914 758.614136,598.780823 773.042542,594.153320 
	C826.247192,577.089417 862.470581,524.568420 852.108948,459.822052 
	C849.058228,440.758881 842.852356,422.730377 835.015442,404.378479 
M247.461243,303.897827 
	C225.965271,303.912537 204.469284,303.948700 182.973328,303.933441 
	C171.205002,303.925079 171.205032,303.885895 171.396622,315.718628 
	C171.503021,322.290039 171.864487,322.657440 178.657928,322.659485 
	C209.152328,322.668640 239.646896,322.719818 270.141083,322.638977 
	C283.160339,322.604462 281.556976,324.447754 281.891266,310.892242 
	C282.019287,305.699738 279.897675,303.515564 274.920197,303.583282 
	C266.095459,303.703339 257.270294,303.792938 247.461243,303.897827 
z"/>
<path fill="#000000" opacity="1.000000" stroke="none" 
	d="
M604.191284,528.929321 
	C600.324097,536.365662 596.556335,543.417786 592.915527,550.534790 
	C590.141968,555.956604 586.096375,558.486938 579.742493,558.446838 
	C546.416992,558.236328 513.089478,558.331787 479.762665,558.323120 
	C472.952942,558.321350 472.484344,558.738098 472.406219,565.702026 
	C472.325867,572.866455 472.660187,580.048645 472.259155,587.191895 
	C471.985809,592.059998 473.712402,594.229126 478.411133,595.610596 
	C512.902283,605.751831 547.279419,616.281250 581.787476,626.363281 
	C587.331360,627.983032 590.615723,631.938538 594.752136,635.204956 
	C603.143738,641.831604 605.994690,649.846069 605.517639,660.706726 
	C604.582642,681.994080 605.202026,703.353210 605.349426,724.681396 
	C605.376770,728.642273 604.271423,731.657410 601.353271,734.396667 
	C595.402832,739.982483 589.638306,745.773132 583.942871,751.621277 
	C580.663635,754.988525 576.920044,756.098328 572.250732,755.888550 
	C562.937683,755.470093 553.600464,755.623535 544.277161,755.385986 
	C539.835815,755.272888 538.080017,756.954407 538.228027,761.595703 
	C538.530518,771.084167 538.377441,780.589539 538.297058,790.087097 
	C538.222961,798.843262 533.780334,803.229065 525.049988,803.405701 
	C517.391113,803.560608 509.729889,803.946533 502.074768,803.846313 
	C491.318024,803.705566 487.688751,799.874451 487.667694,789.254456 
	C487.650482,780.589478 487.678864,771.924438 487.657349,763.259521 
	C487.640289,756.385864 486.820709,755.468445 479.894501,755.442322 
	C463.064728,755.378906 446.234528,755.431763 429.404480,755.426697 
	C427.405579,755.426086 425.392242,755.497925 423.410248,755.295166 
	C415.198456,754.454956 410.352264,746.744934 413.818298,739.327148 
	C417.974976,730.431396 422.669434,721.783936 427.230225,713.080994 
	C430.047821,707.704468 435.157654,706.940735 440.507141,706.945984 
	C475.166687,706.980164 509.826233,707.039001 544.485779,707.089478 
	C545.652161,707.091187 546.821960,707.032532 547.984375,707.100403 
	C551.942627,707.331604 553.778076,705.674500 553.698608,701.535156 
	C553.538635,693.206543 553.529297,684.870361 553.695496,676.542053 
	C553.772278,672.696472 552.140076,671.101746 548.493164,670.023865 
	C516.253357,660.494873 484.112305,650.630493 451.849243,641.182373 
	C444.923157,639.154053 439.524902,635.405945 433.889038,631.071472 
	C423.386414,622.993896 419.599030,613.432983 420.413361,600.138000 
	C421.592896,580.880371 420.804535,561.496887 420.666992,542.168396 
	C420.638702,538.190735 421.818481,535.231567 424.728546,532.493774 
	C430.550354,527.016479 436.256683,521.391113 441.665771,515.509583 
	C445.128479,511.744507 448.978394,510.361298 454.030579,510.533539 
	C463.518097,510.856903 473.027008,510.507538 482.520386,510.725983 
	C486.424866,510.815857 487.829437,509.494873 487.743256,505.551910 
	C487.543030,496.391754 487.663788,487.223419 487.729462,478.058929 
	C487.788147,469.868866 491.189453,465.612061 499.126648,465.185486 
	C508.926666,464.658813 518.787170,464.455719 528.575867,465.572601 
	C535.081299,466.314911 538.229248,470.010956 538.307739,476.646271 
	C538.414001,485.643372 538.360535,494.642334 538.383606,503.640503 
	C538.401489,510.624603 538.406860,510.649353 545.189514,510.659027 
	C560.853149,510.681396 576.516968,510.627777 592.180298,510.700470 
	C603.665710,510.753784 608.402100,517.786804 604.191284,528.929321 
z"/>
<path fill="#000000" opacity="1.000000" stroke="none" 
	d="
M778.152771,534.706177 
	C778.936462,531.681030 780.077637,529.251160 781.815369,527.209290 
	C788.623535,519.209351 793.094543,510.045776 796.158020,500.038391 
	C798.244568,493.222046 802.453186,488.230164 810.182495,487.716705 
	C823.957581,486.801666 832.069702,495.849274 828.935852,509.501678 
	C825.531250,524.333435 818.174072,537.440186 808.339294,548.962708 
	C802.589722,555.698792 794.159241,557.406921 787.575378,554.294861 
	C780.738953,551.063416 777.205688,543.964111 778.152771,534.706177 
z"/>
</svg>